<svg width="16" height="15" viewBox="0 0 16 15" fill="none" xmlns="http://www.w3.org/2000/svg">
<g opacity="0.8">
<path fill-rule="evenodd" clip-rule="evenodd" d="M6.16548 1.77018C5.38081 1.77018 4.7447 2.40629 4.7447 3.19096C4.7447 3.97564 5.3808 4.61175 6.16548 4.61175C6.95016 4.61175 7.58626 3.97564 7.58626 3.19096C7.58626 2.40629 6.95016 1.77018 6.16548 1.77018ZM9.3623 3.19096C9.3623 1.42541 7.93104 -0.00585969 6.16548 -0.00586007C4.39992 -0.00586046 2.96866 1.42541 2.96866 3.19096C2.96866 4.95652 4.39992 6.38779 6.16548 6.38779C7.93104 6.38779 9.3623 4.95652 9.3623 3.19096Z" fill="#37B778"/>
<path fill-rule="evenodd" clip-rule="evenodd" d="M4.2334 3.00228C4.2334 3.49272 3.83582 3.8903 3.34538 3.8903L1.84099 3.8903C1.35055 3.8903 0.952969 3.49272 0.952969 3.00228C0.952969 2.51184 1.35055 2.11426 1.84099 2.11426L3.34538 2.11426C3.83582 2.11426 4.2334 2.51184 4.2334 3.00228Z" fill="#37B778"/>
<path fill-rule="evenodd" clip-rule="evenodd" d="M15.1396 3.00228C15.1396 3.49272 14.7421 3.8903 14.2516 3.8903L8.98627 3.8903C8.49583 3.8903 8.09825 3.49272 8.09825 3.00228C8.09825 2.51184 8.49583 2.11426 8.98627 2.11426L14.2516 2.11426C14.7421 2.11426 15.1396 2.51184 15.1396 3.00228Z" fill="#37B778"/>
<path fill-rule="evenodd" clip-rule="evenodd" d="M9.92632 12.4261C10.711 12.4261 11.3471 11.79 11.3471 11.0053C11.3471 10.2206 10.711 9.58454 9.92632 9.58454C9.14164 9.58454 8.50553 10.2206 8.50553 11.0053C8.50553 11.79 9.14164 12.4261 9.92632 12.4261ZM6.72949 11.0053C6.72949 12.7709 8.16076 14.2021 9.92632 14.2021C11.6919 14.2021 13.1231 12.7709 13.1231 11.0053C13.1231 9.23977 11.6919 7.8085 9.92632 7.8085C8.16076 7.8085 6.72949 9.23977 6.72949 11.0053Z" fill="#37B778"/>
<path fill-rule="evenodd" clip-rule="evenodd" d="M11.8594 11.194C11.8594 10.7036 12.257 10.306 12.7474 10.306L14.2518 10.306C14.7422 10.306 15.1398 10.7036 15.1398 11.194C15.1398 11.6845 14.7422 12.082 14.2518 12.082L12.7474 12.082C12.257 12.082 11.8594 11.6845 11.8594 11.194Z" fill="#37B778"/>
<path fill-rule="evenodd" clip-rule="evenodd" d="M0.953125 11.194C0.953125 10.7036 1.35071 10.306 1.84115 10.306L7.1065 10.306C7.59694 10.306 7.99452 10.7036 7.99452 11.194C7.99452 11.6845 7.59694 12.082 7.1065 12.082L1.84115 12.082C1.35071 12.082 0.953125 11.6845 0.953125 11.194Z" fill="#37B778"/>
</g>
</svg>
