<svg width="15" height="15" viewBox="0 0 15 15" fill="none" xmlns="http://www.w3.org/2000/svg">
<g opacity="0.8">
<path fill-rule="evenodd" clip-rule="evenodd" d="M5.84999 2.29688H2.24414L2.24414 4.21167H5.84999V2.29688ZM2.24414 0.964844C1.50848 0.964844 0.912109 1.56121 0.912109 2.29688V4.21167C0.912109 4.94733 1.50848 5.5437 2.24414 5.5437H5.84999C6.58565 5.5437 7.18202 4.94733 7.18202 4.21167V2.29687C7.18202 1.56121 6.58565 0.964844 5.84999 0.964844H2.24414Z" fill="#37B778"/>
<path fill-rule="evenodd" clip-rule="evenodd" d="M12.9008 11.0381H9.29492L9.29492 12.9529H12.9008V11.0381ZM9.29492 9.70605C8.55926 9.70605 7.96289 10.3024 7.96289 11.0381V12.9529C7.96289 13.6885 8.55926 14.2849 9.29492 14.2849H12.9008C13.6364 14.2849 14.2328 13.6885 14.2328 12.9529V11.0381C14.2328 10.3024 13.6364 9.70605 12.9008 9.70605H9.29492Z" fill="#37B778"/>
<path fill-rule="evenodd" clip-rule="evenodd" d="M5.84999 7.65625H2.24414L2.24414 12.9532H5.84999V7.65625ZM2.24414 6.32422C1.50848 6.32422 0.912109 6.92059 0.912109 7.65625V12.9532C0.912109 13.6888 1.50848 14.2852 2.24414 14.2852H5.84999C6.58565 14.2852 7.18202 13.6888 7.18202 12.9532V7.65625C7.18202 6.92059 6.58565 6.32422 5.84999 6.32422H2.24414Z" fill="#37B778"/>
<path fill-rule="evenodd" clip-rule="evenodd" d="M12.9008 2.29688H9.29492L9.29492 7.59378H12.9008V2.29688ZM9.29492 0.964844C8.55926 0.964844 7.96289 1.56121 7.96289 2.29687V7.59378C7.96289 8.32944 8.55926 8.92581 9.29492 8.92581H12.9008C13.6364 8.92581 14.2328 8.32944 14.2328 7.59378V2.29688C14.2328 1.56121 13.6364 0.964844 12.9008 0.964844H9.29492Z" fill="#37B778"/>
</g>
</svg>
