<svg width="14" height="15" viewBox="0 0 14 15" fill="none" xmlns="http://www.w3.org/2000/svg">
<path fill-rule="evenodd" clip-rule="evenodd" d="M3.1487 2.09082H6.61198C7.24956 2.09082 7.76641 2.68719 7.76641 3.42285V11.415C7.76641 12.1507 7.24956 12.7471 6.61198 12.7471H3.1487C2.51113 12.7471 1.99427 12.1507 1.99427 11.415V3.42285C1.99427 2.68719 2.51113 2.09082 3.1487 2.09082ZM0.839844 3.42285C0.839844 1.95153 1.87355 0.758789 3.1487 0.758789H6.61198C7.88713 0.758789 8.92084 1.95153 8.92084 3.42285V4.63764C8.90601 4.33206 8.65356 4.08887 8.34431 4.08887C8.02553 4.08887 7.7671 4.34729 7.7671 4.66608V10.1718C7.7671 10.4906 8.02553 10.749 8.34431 10.749C8.65356 10.749 8.90601 10.5058 8.92084 10.2003V11.415C8.92084 12.8864 7.88713 14.0791 6.61198 14.0791H3.1487C1.87355 14.0791 0.839844 12.8864 0.839844 11.415V3.42285Z" fill="#F5675C"/>
<rect x="7.76758" y="3.42285" width="1.15443" height="1.99805" rx="0.577214" fill="#F5675C"/>
<rect x="7.76758" y="9.41699" width="1.15443" height="1.99805" rx="0.577214" fill="#F5675C"/>
<path fill-rule="evenodd" clip-rule="evenodd" d="M10.851 4.0437L13.3699 6.95017C13.5954 7.21027 13.5954 7.63196 13.3699 7.89206L10.851 10.7985C10.6256 11.0586 10.2601 11.0586 10.0347 10.7985C9.80928 10.5384 9.80928 10.1167 10.0347 9.85664L11.5683 8.08713H6.03522C5.71644 8.08713 5.45801 7.78895 5.45801 7.42111C5.45801 7.05328 5.71644 6.7551 6.03522 6.7551H11.5683L10.0347 4.98559C9.80928 4.7255 9.80928 4.3038 10.0347 4.0437C10.2601 3.78361 10.6256 3.78361 10.851 4.0437Z" fill="#F5675C"/>
</svg>
