<svg width="14" height="15" viewBox="0 0 14 15" fill="none" xmlns="http://www.w3.org/2000/svg">
<path fill-rule="evenodd" clip-rule="evenodd" d="M6.7502 1.41497C5.18079 1.41497 3.90853 2.68723 3.90853 4.25664C3.90853 5.82605 5.18079 7.09831 6.7502 7.09831C8.31961 7.09831 9.59186 5.82605 9.59186 4.25664C9.59186 2.68723 8.31961 1.41497 6.7502 1.41497ZM2.4877 4.25664C2.4877 1.90253 4.39608 -0.00585938 6.7502 -0.00585938C9.10431 -0.00585938 11.0127 1.90253 11.0127 4.25664C11.0127 6.61075 9.10431 8.51914 6.7502 8.51914C4.39608 8.51914 2.4877 6.61075 2.4877 4.25664ZM2.35495 10.3779C3.51314 9.65406 5.06894 9.22956 6.7502 9.22956C8.43145 9.22956 9.98726 9.65406 11.1454 10.3779C12.2936 11.0955 13.1439 12.1778 13.1439 13.4921C13.1439 13.8844 12.8259 14.2025 12.4335 14.2025C12.0412 14.2025 11.7231 13.8844 11.7231 13.4921C11.7231 12.8445 11.3012 12.1508 10.3924 11.5828C9.49362 11.0211 8.20776 10.6504 6.7502 10.6504C5.29263 10.6504 4.00677 11.0211 3.10799 11.5828C2.1992 12.1508 1.77728 12.8445 1.77728 13.4921C1.77728 13.8844 1.45921 14.2025 1.06686 14.2025C0.67451 14.2025 0.356445 13.8844 0.356445 13.4921C0.356445 12.1778 1.20678 11.0955 2.35495 10.3779Z" fill="#37B778"/>
</svg>
