<svg width="14" height="14" viewBox="0 0 14 14" fill="none" xmlns="http://www.w3.org/2000/svg">
<path fill-rule="evenodd" clip-rule="evenodd" d="M2.36053 2.25586H9.71241C10.4507 2.25586 11.0491 2.85223 11.0491 3.58789V8.25H11.7175V3.58789C11.7175 2.4844 10.8198 1.58984 9.71241 1.58984H2.36053C1.25316 1.58984 0.355469 2.4844 0.355469 3.58789V11.5801C0.355469 12.6836 1.25316 13.5781 2.36053 13.5781H7.03904V12.9121H2.36053C1.62229 12.9121 1.02382 12.3157 1.02382 11.5801V3.58789C1.02382 2.85223 1.62229 2.25586 2.36053 2.25586Z" fill="#37B778"/>
<rect x="2.36035" y="5.58594" width="7.35188" height="0.799219" rx="0.399609" fill="#37B778"/>
<rect x="2.36035" y="7.71777" width="6.68353" height="0.799218" rx="0.399609" fill="#37B778"/>
<rect x="2.36035" y="9.84863" width="5.34682" height="0.799218" rx="0.399609" fill="#37B778"/>
<path d="M2.69434 0.923828C2.69434 0.555998 2.99357 0.257812 3.36269 0.257812H8.70951C9.07863 0.257812 9.37787 0.555998 9.37787 0.923828V2.92188C9.37787 3.28971 9.07863 3.58789 8.70951 3.58789H3.36269C2.99357 3.58789 2.69434 3.28971 2.69434 2.92188V0.923828Z" fill="#37B778"/>
<path d="M10.7148 8.91602C12.0066 8.91627 13.0537 9.95982 13.0537 11.2471C13.0537 12.5343 12.0066 13.5779 10.7148 13.5781C9.42292 13.5781 8.375 12.5345 8.375 11.2471C8.375 9.95966 9.42292 8.91602 10.7148 8.91602ZM11.8096 10.416C11.6365 10.2424 11.3553 10.242 11.1816 10.415L10.4551 11.1377L10.249 10.9326C10.0753 10.7597 9.79414 10.761 9.62109 10.9346C9.44821 11.1083 9.44844 11.3895 9.62207 11.5625L10.1416 12.0801C10.3148 12.2525 10.5953 12.2525 10.7686 12.0801L11.8086 11.0439C11.982 10.8709 11.9824 10.5897 11.8096 10.416Z" fill="#37B778"/>
<rect x="3.69727" y="12.9121" width="4.01012" height="0.666016" rx="0.333008" fill="#37B778"/>
<rect x="11.7178" y="4.25391" width="3.99609" height="0.668353" rx="0.334176" transform="rotate(90 11.7178 4.25391)" fill="#37B778"/>
</svg>
