<svg width="18" height="18" viewBox="0 0 18 18" fill="none" xmlns="http://www.w3.org/2000/svg">
<g opacity="0.8">
<circle cx="9.12858" cy="8.86198" r="7.99219" stroke="#00AEEF" stroke-width="0.888021"/>
<path d="M8.02856 10.0828C8.02856 9.70151 8.13216 9.36999 8.33937 9.08819C8.54657 8.80639 8.88639 8.54946 9.35882 8.31739L10.3037 7.84496C10.5357 7.72892 10.7181 7.59217 10.8507 7.43469C10.9916 7.26893 11.062 7.08659 11.062 6.88767C11.062 6.49813 10.8963 6.19146 10.5647 5.96768C10.2415 5.7439 9.78566 5.63201 9.1972 5.63201C8.60873 5.63201 8.13216 5.76462 7.76748 6.02984C7.4028 6.28678 7.19145 6.64731 7.13343 7.11145H5.13184C5.20643 6.12516 5.60012 5.3585 6.3129 4.81148C7.02569 4.25617 7.98712 3.97852 9.1972 3.97852C10.4073 3.97852 11.3521 4.22716 12.0318 4.72445C12.7197 5.22174 13.0636 5.90966 13.0636 6.78821C13.0636 7.2192 12.9393 7.61703 12.6907 7.98171C12.442 8.33811 12.0732 8.64063 11.5842 8.88927L10.5399 9.39899C10.3244 9.50674 10.1586 9.62692 10.0426 9.75953C9.93484 9.89214 9.88097 10.0579 9.88097 10.2568V10.5552H8.09072C8.06586 10.4723 8.04928 10.3936 8.04099 10.319C8.0327 10.2361 8.02856 10.1574 8.02856 10.0828ZM8.94855 13.6011C8.59216 13.6011 8.30207 13.4975 8.07829 13.2903C7.85451 13.0748 7.74262 12.8013 7.74262 12.4698C7.74262 12.13 7.85451 11.8564 8.07829 11.6492C8.30207 11.4337 8.59216 11.326 8.94855 11.326C9.31323 11.326 9.60332 11.4337 9.81881 11.6492C10.0426 11.8564 10.1545 12.13 10.1545 12.4698C10.1545 12.8013 10.0426 13.0748 9.81881 13.2903C9.60332 13.4975 9.31323 13.6011 8.94855 13.6011Z" fill="#00AEEF"/>
</g>
</svg>
