<svg width="16" height="15" viewBox="0 0 16 15" fill="none" xmlns="http://www.w3.org/2000/svg">
<path d="M11.2509 14.4661C9.08537 14.4661 6.91979 14.4661 4.757 14.4661C4.73198 14.455 4.70696 14.4411 4.68194 14.4383C3.86186 14.3021 3.16965 13.6238 3.04455 12.8065C3.00285 12.5257 3.01119 12.2366 3.01119 11.9503C3.00841 10.4019 3.00841 8.85344 3.01119 7.30501C3.01119 7.19381 2.99451 7.13822 2.86386 7.1132C2.43852 7.03814 2.04099 6.8769 1.67682 6.64061C0.948475 6.17357 0.445305 5.53697 0.19789 4.70576C0.147851 4.53897 0.108932 4.36939 0.0644531 4.19982C0.0644531 3.88568 0.0644531 3.57155 0.0644531 3.25741C0.0755729 3.22128 0.0894726 3.18792 0.0950325 3.15178C0.181211 2.64305 0.364687 2.17046 0.670481 1.75625C1.39605 0.766585 2.37459 0.260636 3.60888 0.260636C6.5167 0.260636 9.4273 0.266196 12.3351 0.257856C12.994 0.255076 13.6083 0.385733 14.1838 0.708207C14.7398 1.01956 15.179 1.45045 15.5015 2.00366C15.8351 2.57355 15.9713 3.18514 15.9546 3.84398C15.9379 4.55287 15.7128 5.18392 15.2985 5.74824C14.7592 6.48215 14.0337 6.93806 13.1413 7.11598C13.0218 7.141 12.9995 7.18547 12.9995 7.29667C13.0023 9.03136 13.0023 10.7633 13.0023 12.4979C13.0023 13.3125 12.4574 14.0742 11.6902 14.3383C11.5428 14.3855 11.3955 14.4244 11.2509 14.4661ZM4.12039 4.27487C4.12039 4.33603 4.12039 4.38329 4.12039 4.42777C4.12039 7.07984 4.12039 9.73468 4.12039 12.3867C4.12039 12.9789 4.50958 13.3653 5.10449 13.3653C7.03655 13.3681 8.97139 13.3653 10.9035 13.3653C11.5067 13.3653 11.8903 12.9789 11.8903 12.3756C11.8903 9.72634 11.8903 7.07706 11.8903 4.43055C11.8903 4.38051 11.8903 4.33047 11.8903 4.27487C9.29664 4.27487 6.71686 4.27487 4.12039 4.27487ZM12.9995 6.0318C13.1774 5.96508 13.3442 5.9206 13.4944 5.84554C14.2394 5.46469 14.7009 4.86978 14.8204 4.0358C14.901 3.46591 14.787 2.93216 14.4673 2.45123C13.9697 1.70899 13.2608 1.35871 12.3768 1.35871C9.48568 1.35593 6.59454 1.35871 3.7034 1.35593C3.10293 1.35593 2.5525 1.49771 2.07435 1.87578C1.54894 2.29277 1.23759 2.83764 1.18199 3.50205C1.11249 4.31657 1.40439 4.99488 2.02709 5.52585C2.30787 5.76492 2.63312 5.92616 3.01119 6.01234C3.01119 5.95118 3.01119 5.90114 3.01119 5.8511C3.01119 5.14778 3.00841 4.44445 3.01397 3.7439C3.01397 3.65495 3.03621 3.56043 3.07235 3.47981C3.18355 3.24073 3.39482 3.16846 3.64224 3.16846C6.55284 3.16846 9.46066 3.16846 12.3713 3.16846C12.3991 3.16846 12.4269 3.16846 12.4547 3.16846C12.7855 3.18792 12.9995 3.41309 12.9995 3.7439C12.9995 4.44723 12.9995 5.15056 12.9995 5.8511C12.9995 5.90392 12.9995 5.95396 12.9995 6.0318Z" fill="#37B778"/>
<path d="M8.61875 9.67342C8.77443 9.50385 8.92454 9.32871 9.08578 9.16747C9.28038 8.97566 9.58339 8.94508 9.78354 9.08129C10.1005 9.29813 10.1394 9.67342 9.86972 9.94864C9.63899 10.1822 9.40547 10.4129 9.1664 10.6381C9.0135 10.7826 8.86616 10.9439 8.68825 11.0523C8.15172 11.3803 7.52623 11.3025 7.0731 10.866C6.75619 10.563 6.44761 10.2517 6.13904 9.9403C5.91664 9.71512 5.90552 9.39543 6.10846 9.17859C6.31418 8.9562 6.65055 8.9284 6.88128 9.12855C7.07032 9.28979 7.24268 9.47049 7.44839 9.66786C7.44839 9.5928 7.44839 9.54554 7.44839 9.49829C7.44839 8.55589 7.44839 7.61348 7.44839 6.67108C7.44839 6.38197 7.58461 6.19015 7.84592 6.10398C8.06832 6.0317 8.32685 6.11232 8.46307 6.32915C8.52423 6.42367 8.55481 6.55155 8.55481 6.66552C8.56315 7.60236 8.55759 8.54199 8.55759 9.47883C8.55759 9.52887 8.55759 9.5789 8.55759 9.62894C8.57983 9.64562 8.59929 9.65952 8.61875 9.67342Z" fill="#37B778"/>
</svg>
