<svg width="14" height="15" viewBox="0 0 14 15" fill="none" xmlns="http://www.w3.org/2000/svg">
<path d="M0.843601 1.16002C0.843601 1.06827 0.843601 0.973729 0.843601 0.881972C0.957601 0.673435 1.09941 0.520508 1.36355 0.520508C5.12 0.520508 8.87367 0.520508 12.6273 0.520508C12.9304 0.520508 13.1556 0.734606 13.1584 1.02378C13.1612 1.31017 12.9249 1.53817 12.6218 1.54095C12.341 1.54373 12.0573 1.54095 11.7765 1.54095C11.7265 1.54095 11.6792 1.54095 11.6152 1.54095C11.6152 1.67997 11.6125 1.79954 11.6152 1.9191C11.6291 2.66983 11.5902 3.415 11.3594 4.14071C10.9535 5.4253 10.2055 6.4096 8.94318 6.95736C8.66513 7.0797 8.51221 7.31048 8.50665 7.61077C8.49831 7.91941 8.64845 8.16687 8.92928 8.28643C9.71616 8.62287 10.3334 9.14839 10.7922 9.86575C11.2065 10.5136 11.4679 11.2226 11.5457 11.9873C11.5986 12.5017 11.593 13.0188 11.6152 13.536C11.618 13.5888 11.6152 13.6444 11.6152 13.7084C11.6875 13.7084 11.7376 13.7084 11.7876 13.7084C12.074 13.7084 12.3604 13.7056 12.6468 13.7084C12.9693 13.714 13.214 14.0143 13.1501 14.3201C13.1056 14.5286 12.961 14.651 12.7719 14.7288C8.91538 14.7288 5.05883 14.7288 1.20228 14.7288C1.04102 14.651 0.918674 14.5314 0.84082 14.3674C0.84082 14.2756 0.84082 14.1811 0.84082 14.0893C0.960382 13.8002 1.18282 13.6889 1.48868 13.7028C1.77785 13.7167 2.06702 13.7056 2.37287 13.7056C2.37287 13.4248 2.37287 13.1579 2.37287 12.8909C2.37565 12.2681 2.45351 11.6564 2.64536 11.0614C3.05131 9.8018 3.80205 8.83419 5.04215 8.29477C5.32854 8.16965 5.47591 7.94165 5.47869 7.63024C5.48147 7.31326 5.32298 7.09638 5.04215 6.94901C4.73908 6.79053 4.42488 6.64316 4.15795 6.43462C3.1959 5.68667 2.69263 4.66623 2.47019 3.4873C2.36175 2.91173 2.36731 2.32783 2.37009 1.74671C2.37009 1.68275 2.37009 1.6188 2.37009 1.54095C2.05868 1.54095 1.76394 1.53261 1.47199 1.54373C1.17448 1.55763 0.960382 1.44363 0.843601 1.16002ZM3.41834 1.54651C3.41 2.23051 3.38775 2.90061 3.54902 3.55959C3.67693 4.09344 3.88546 4.59393 4.21912 5.03881C4.55 5.47813 4.9643 5.80067 5.46757 6.01755C5.87074 6.18994 6.17381 6.47633 6.35454 6.87394C6.77996 7.81097 6.39625 8.81751 5.45644 9.23458C4.57225 9.62663 4.02449 10.3079 3.69639 11.1976C3.39888 12.0012 3.40166 12.8381 3.42112 13.675C3.42112 13.6834 3.42946 13.6889 3.4378 13.7001C5.81513 13.7001 8.19245 13.7001 10.5698 13.7001C10.6421 13.219 10.5587 12.118 10.4252 11.6036C10.2639 10.9807 9.99143 10.4191 9.55211 9.94083C9.23514 9.59605 8.84309 9.37361 8.42323 9.17897C7.76425 8.87034 7.3583 8.07233 7.48899 7.35775C7.60299 6.73214 7.95055 6.27891 8.53445 6.01755C8.8987 5.85628 9.2268 5.64774 9.50206 5.36135C10.0526 4.79135 10.3473 4.09344 10.4947 3.32603C10.6059 2.75047 10.5837 2.16656 10.5781 1.58544C10.5781 1.57432 10.567 1.56041 10.5614 1.54929C8.18689 1.54651 5.81235 1.54651 3.41834 1.54651Z" fill="#37B778"/>
<path d="M7.00465 2.04395C7.84157 2.04395 8.6785 2.04395 9.51265 2.04395C9.88524 2.04395 10.091 2.24136 10.0771 2.60839C10.0326 3.75673 9.50987 4.62981 8.51445 5.19703C7.6247 5.70586 6.68767 5.74757 5.75898 5.33605C4.73854 4.88283 4.12405 4.08761 3.95166 2.96985C3.9322 2.84195 3.92386 2.71126 3.92386 2.58336C3.92108 2.2497 4.12405 2.04395 4.45493 2.04395C5.30298 2.04395 6.15381 2.04395 7.00465 2.04395Z" fill="#37B778"/>
</svg>
