<svg width="20" height="20" viewBox="0 0 20 20" fill="none" xmlns="http://www.w3.org/2000/svg">
<path d="M15.1408 19.9999C15.1055 19.9843 15.0703 19.9568 15.0311 19.9529C14.8703 19.9255 14.7057 19.9137 14.5489 19.8823C14.2667 19.8275 14.0628 19.6785 13.9609 19.4002C13.8982 19.2316 13.8198 19.063 13.7492 18.8984C13.5963 18.5456 13.3964 18.4398 13.0201 18.4946C12.828 18.5221 12.632 18.5417 12.4399 18.5613C12.189 18.5887 11.9774 18.5064 11.8127 18.3143C11.4129 17.8518 11.111 17.3304 10.915 16.7502C10.8327 16.5033 10.8719 16.2759 11.0287 16.0681C11.1424 15.9192 11.2482 15.7585 11.3776 15.6213C11.5148 15.4762 11.5775 15.3194 11.5422 15.1273C11.5265 15.0411 11.503 14.9509 11.4521 14.8843C11.3149 14.6883 11.162 14.5001 11.0169 14.308C10.868 14.112 10.8366 13.8925 10.915 13.6612C11.1071 13.0811 11.4129 12.5597 11.8088 12.0932C11.9852 11.8855 12.2126 11.7992 12.4909 11.8424C12.7026 11.8776 12.9142 11.9012 13.1298 11.9325C13.3454 11.9639 13.6277 11.8031 13.71 11.6032C13.7962 11.3994 13.8825 11.1955 13.9687 10.9917C14.0706 10.7369 14.251 10.5723 14.5254 10.5213C15.1291 10.4076 15.7288 10.4076 16.3325 10.5252C16.5912 10.5762 16.7637 10.7291 16.8617 10.9682C16.9244 11.1171 16.9832 11.27 17.046 11.419C17.2224 11.858 17.3948 11.956 17.8613 11.8972C18.0299 11.8776 18.1984 11.858 18.367 11.8345C18.6257 11.7992 18.8452 11.8776 19.0138 12.0736C19.4489 12.5676 19.7665 13.132 19.9585 13.7632C19.9664 13.7828 19.9899 13.7945 20.0017 13.8141C20.0017 13.8651 20.0017 13.92 20.0017 13.9709C19.935 14.0885 19.8762 14.214 19.7978 14.3277C19.6606 14.5237 19.5077 14.7118 19.3666 14.9039C19.2765 15.0254 19.2686 15.3508 19.3509 15.4723C19.5665 15.7937 19.7861 16.1152 20.0017 16.4366C20.0017 16.5033 20.0017 16.566 20.0017 16.6326C19.9781 16.664 19.9468 16.6953 19.935 16.7306C19.7233 17.3108 19.4333 17.8439 19.0256 18.3104C18.857 18.5025 18.6532 18.5848 18.4023 18.5613C18.2141 18.5417 18.026 18.5221 17.8417 18.4986C17.4223 18.4398 17.238 18.5417 17.0734 18.9298C17.0068 19.0866 16.9362 19.2394 16.8813 19.3963C16.7794 19.6824 16.5677 19.8353 16.2776 19.8863C16.1169 19.9137 15.9562 19.9294 15.7955 19.9529C15.7523 19.9607 15.7092 19.9843 15.6661 19.9999C15.4819 19.9999 15.3133 19.9999 15.1408 19.9999ZM12.3772 16.6287C12.4242 16.7149 12.4713 16.7855 12.5026 16.86C12.585 17.0599 12.6986 17.1422 12.9338 17.0834C13.3729 16.9737 13.8002 16.9933 14.1569 17.3304C14.1765 17.3461 14.2 17.3618 14.2235 17.3696C14.6822 17.5029 14.886 17.8596 15.0193 18.279C15.035 18.33 15.0428 18.3888 15.0781 18.4202C15.1291 18.4711 15.1957 18.5378 15.2623 18.5417C15.6935 18.573 15.6935 18.5691 15.8582 18.1575C15.8699 18.1262 15.8856 18.0987 15.8935 18.0674C15.9915 17.7498 16.1875 17.5264 16.5089 17.4127C16.6344 17.3657 16.752 17.2873 16.8578 17.201C17.0538 17.0442 17.2733 16.9972 17.5164 17.0286C17.6575 17.0442 17.8025 17.0521 17.9397 17.0874C18.1004 17.1266 18.2063 17.0991 18.2808 16.9345C18.3513 16.7698 18.5042 16.6365 18.316 16.4405C17.9946 16.1073 17.8652 15.731 17.8574 15.2332C17.8496 14.6883 18.0064 14.2767 18.3513 13.8964C18.3905 13.8533 18.4297 13.7788 18.418 13.7279C18.3592 13.4182 18.1632 13.2771 17.8535 13.3202C17.7437 13.3359 17.634 13.3516 17.5242 13.3672C17.289 13.4025 17.0773 13.3516 16.8813 13.2065C16.7245 13.0928 16.5324 13.0262 16.3795 12.9086C16.2306 12.7949 16.0855 12.6616 15.9797 12.5048C15.8817 12.3559 15.8268 12.1756 15.768 12.0031C15.7249 11.8776 15.6504 11.8424 15.5211 11.8424C15.1291 11.8424 15.1291 11.8345 14.984 12.1991C14.9527 12.2775 14.9331 12.3637 14.886 12.4304C14.7841 12.5793 14.6939 12.7479 14.5567 12.8498C14.3294 13.0184 14.0746 13.1516 13.8198 13.281C13.71 13.3359 13.5728 13.3594 13.4474 13.3672C13.3141 13.3712 13.1769 13.3398 13.0397 13.3241C12.6281 13.2771 12.6202 13.2732 12.4438 13.6534C12.4164 13.7122 12.4321 13.8141 12.4674 13.869C12.5732 14.0336 12.7222 14.1708 12.8123 14.3433C12.8946 14.4962 12.9417 14.6805 12.9613 14.8529C12.9848 15.0725 12.9613 15.2959 12.9691 15.5154C12.977 15.7193 12.9378 15.8996 12.8084 16.0642C12.6594 16.2485 12.5262 16.4327 12.3772 16.6287Z" fill="#37B778"/>
<path d="M10.06 19.9645C10.06 19.9763 10.06 19.988 10.06 19.9998C7.51592 19.9998 4.97574 19.9998 2.43164 19.9998C2.43164 19.988 2.43164 19.9763 2.43164 19.9645C2.45908 19.9606 2.4826 19.9528 2.51004 19.9528C4.99142 19.9528 7.46888 19.9528 9.95026 19.9528C9.98162 19.9528 10.0208 19.9606 10.06 19.9645Z" fill="#37B778"/>
<path d="M10.0588 19.9647C10.0196 19.9608 9.9804 19.9569 9.9412 19.9569C7.45982 19.9569 4.98236 19.9569 2.50098 19.9569C2.47354 19.9569 2.45002 19.9647 2.42258 19.9686C0.972168 19.8275 0.00392003 18.7652 0 17.303C0 12.4187 0 7.5343 0 2.64994C0 1.31713 0.850647 0.274402 2.12858 0.0431203C2.30498 0.0117601 2.49314 0.00392003 2.67346 0.00392003C5.24892 8.76195e-10 7.82438 0.00784006 10.3998 0C10.9408 0 11.3798 0.184241 11.7601 0.568404C13.0772 1.89729 14.4022 3.21442 15.7272 4.53548C16.0643 4.8726 16.2446 5.27636 16.2407 5.75852C16.2328 6.84045 16.2407 7.92238 16.2368 9.00431C16.2368 9.44335 15.9428 9.76088 15.539 9.76088C15.147 9.76088 14.8373 9.43159 14.8373 9.00431C14.8373 8.09878 14.8373 7.19326 14.8373 6.28381C14.8373 6.21325 14.8373 6.14269 14.8373 6.04469C14.7511 6.04469 14.6727 6.04469 14.5982 6.04469C13.6456 6.04077 12.6931 6.06429 11.7444 6.02901C10.8428 5.99373 10.2078 5.29988 10.196 4.38651C10.1842 3.47315 10.1921 2.55978 10.1921 1.64641C10.1921 1.57585 10.1921 1.50529 10.1921 1.42297C10.1411 1.41513 10.098 1.40729 10.0549 1.40729C7.56566 1.40729 5.07252 1.40729 2.5833 1.40729C2.0149 1.40729 1.57193 1.76009 1.43473 2.31282C1.41121 2.41082 1.40729 2.52058 1.40729 2.6225C1.40729 7.52646 1.40729 12.4304 1.40729 17.3344C1.40729 18.0596 1.89729 18.5496 2.6225 18.5496C5.049 18.5496 7.4755 18.5496 9.89808 18.5496C10.3842 18.5496 10.6978 18.8593 10.6782 19.3022C10.6664 19.6315 10.4312 19.8785 10.0588 19.9647ZM11.6111 2.45394C11.6111 3.12034 11.6072 3.76323 11.6111 4.40611C11.6111 4.5786 11.7248 4.6374 11.8855 4.6374C12.4069 4.6374 12.9283 4.6374 13.4496 4.6374C13.5633 4.6374 13.677 4.6374 13.7828 4.6374C13.0615 3.90827 12.3481 3.1909 11.6111 2.45394Z" fill="#37B778"/>
<path d="M8.11706 9.29082C6.90577 9.29082 5.69448 9.29082 4.47927 9.29082C4.01671 9.29082 3.71487 9.0125 3.71879 8.58914C3.71879 8.16969 4.02455 7.88745 4.48319 7.88745C6.91361 7.88745 9.34403 7.88745 11.7745 7.88745C12.1116 7.88745 12.3585 8.03249 12.484 8.33825C12.6016 8.61658 12.5349 8.87922 12.3233 9.0909C12.1782 9.23594 11.9979 9.29082 11.7901 9.29082C10.5671 9.2869 9.34403 9.29082 8.11706 9.29082Z" fill="#37B778"/>
<path d="M6.49553 15.786C5.80953 15.786 5.12744 15.7938 4.44144 15.7821C3.90439 15.7742 3.56727 15.2881 3.76719 14.8138C3.88871 14.5276 4.12 14.3787 4.42576 14.3748C5.80561 14.3708 7.18938 14.3708 8.56923 14.3748C8.98083 14.3748 9.28268 14.6805 9.2866 15.0725C9.29052 15.4724 9.00435 15.7742 8.58883 15.7821C7.89106 15.7938 7.1933 15.786 6.49553 15.786Z" fill="#37B778"/>
<path d="M6.4964 12.5442C5.81432 12.5442 5.12831 12.5482 4.44623 12.5442C3.98758 12.5403 3.69358 12.211 3.72494 11.7602C3.74454 11.4662 3.98366 11.2036 4.27375 11.1565C4.30511 11.1526 4.33647 11.1448 4.37175 11.1448C5.79864 11.1448 7.22553 11.1369 8.65242 11.1526C9.04834 11.1565 9.31098 11.4937 9.29138 11.8896C9.27178 12.2542 8.96994 12.5364 8.57402 12.5442C8.14282 12.5521 7.71553 12.5442 7.28433 12.5442C7.01777 12.5442 6.75905 12.5442 6.4964 12.5442Z" fill="#37B778"/>
<path d="M15.4072 16.5931C14.6389 16.5891 14.0195 15.9698 14.0195 15.1975C14.0195 14.4214 14.6467 13.802 15.4307 13.8059C16.1991 13.8098 16.8224 14.4331 16.8184 15.2015C16.8184 15.9737 16.1873 16.597 15.4072 16.5931Z" fill="#37B778"/>
</svg>
