<svg width="33" height="36" viewBox="0 0 33 36" fill="none" xmlns="http://www.w3.org/2000/svg">
<path d="M16.3134 35.9999C19.7117 35.9999 22.4666 33.2432 22.4666 29.8427C22.4666 26.4422 19.7117 23.6855 16.3134 23.6855C12.915 23.6855 10.1602 26.4422 10.1602 29.8427C10.1602 33.2432 12.915 35.9999 16.3134 35.9999Z" fill="#FFA000"/>
<path d="M32.6588 26.5993C32.6588 28.1865 31.3715 29.4746 29.7853 29.4746H2.87355C1.28735 29.4746 0 28.1865 0 26.5993C0 25.9168 0.237547 25.2957 0.628349 24.7973C0.835245 24.5443 1.08045 24.3219 1.35632 24.1456C3.51722 22.06 4.86588 19.1309 4.86588 15.8875V11.4632C4.86588 5.12969 9.99995 0 16.3218 0C22.6512 0 27.7776 5.13736 27.7776 11.4632V15.8951C27.7776 19.1386 29.1263 22.0753 31.2949 24.1609C31.5707 24.3296 31.8083 24.5443 32.0075 24.7973C32.4213 25.2881 32.6588 25.9168 32.6588 26.5993Z" fill="url(#paint0_linear_4888_8245)"/>
<defs>
<linearGradient id="paint0_linear_4888_8245" x1="16.3294" y1="0" x2="16.3294" y2="29.4746" gradientUnits="userSpaceOnUse">
<stop stop-color="#FFDD78"/>
<stop offset="1" stop-color="#FFC107"/>
</linearGradient>
</defs>
</svg>
